<svg width="1069" height="22" viewBox="0 0 1069 22" fill="none" xmlns="http://www.w3.org/2000/svg">
<g clip-path="url(#clip0_0_60)">
<path d="M4.26043 17V7.535H1.12543V6.5H8.65543V7.535H5.52043V17H4.26043ZM11.9118 17.18C11.2018 17.18 10.5718 17.02 10.0218 16.7C9.47178 16.37 9.03678 15.915 8.71678 15.335C8.40678 14.755 8.25178 14.07 8.25178 13.28C8.25178 12.5 8.40678 11.82 8.71678 11.24C9.02678 10.65 9.45678 10.195 10.0068 9.875C10.5668 9.545 11.2118 9.38 11.9418 9.38C12.6618 9.38 13.2818 9.545 13.8018 9.875C14.3318 10.195 14.7368 10.62 15.0168 11.15C15.2968 11.68 15.4368 12.25 15.4368 12.86C15.4368 12.97 15.4318 13.08 15.4218 13.19C15.4218 13.3 15.4218 13.425 15.4218 13.565H9.49678C9.52678 14.135 9.65678 14.61 9.88678 14.99C10.1268 15.36 10.4218 15.64 10.7718 15.83C11.1318 16.02 11.5118 16.115 11.9118 16.115C12.4318 16.115 12.8668 15.995 13.2168 15.755C13.5668 15.515 13.8218 15.19 13.9818 14.78H15.2268C15.0268 15.47 14.6418 16.045 14.0718 16.505C13.5118 16.955 12.7918 17.18 11.9118 17.18ZM11.9118 10.445C11.3118 10.445 10.7768 10.63 10.3068 11C9.84678 11.36 9.58178 11.89 9.51178 12.59H14.1918C14.1618 11.92 13.9318 11.395 13.5018 11.015C13.0718 10.635 12.5418 10.445 11.9118 10.445ZM16.9023 17V9.56H18.0423L18.1473 10.985C18.3773 10.495 18.7273 10.105 19.1973 9.815C19.6673 9.525 20.2473 9.38 20.9373 9.38V10.7H20.5923C20.1523 10.7 19.7473 10.78 19.3773 10.94C19.0073 11.09 18.7123 11.35 18.4923 11.72C18.2723 12.09 18.1623 12.6 18.1623 13.25V17H16.9023ZM22.147 17V9.56H23.287L23.377 10.64C23.617 10.24 23.937 9.93 24.3369 9.71C24.737 9.49 25.187 9.38 25.687 9.38C26.277 9.38 26.782 9.5 27.202 9.74C27.632 9.98 27.962 10.345 28.192 10.835C28.452 10.385 28.807 10.03 29.257 9.77C29.717 9.51 30.212 9.38 30.742 9.38C31.632 9.38 32.342 9.65 32.872 10.19C33.402 10.72 33.667 11.54 33.667 12.65V17H32.422V12.785C32.422 12.015 32.267 11.435 31.957 11.045C31.647 10.655 31.202 10.46 30.6219 10.46C30.0219 10.46 29.522 10.695 29.122 11.165C28.732 11.625 28.537 12.285 28.537 13.145V17H27.277V12.785C27.277 12.015 27.122 11.435 26.812 11.045C26.502 10.655 26.057 10.46 25.477 10.46C24.887 10.46 24.392 10.695 23.9919 11.165C23.602 11.625 23.407 12.285 23.407 13.145V17H22.147ZM38.2104 17.18C37.3204 17.18 36.5804 16.955 35.9904 16.505C35.4004 16.055 35.0554 15.445 34.9554 14.675H36.2454C36.3254 15.065 36.5304 15.405 36.8604 15.695C37.2004 15.975 37.6554 16.115 38.2254 16.115C38.7554 16.115 39.1454 16.005 39.3954 15.785C39.6454 15.555 39.7704 15.285 39.7704 14.975C39.7704 14.525 39.6054 14.225 39.2754 14.075C38.9554 13.925 38.5004 13.79 37.9104 13.67C37.5104 13.59 37.1104 13.475 36.7104 13.325C36.3104 13.175 35.9754 12.965 35.7054 12.695C35.4354 12.415 35.3004 12.05 35.3004 11.6C35.3004 10.95 35.5404 10.42 36.0204 10.01C36.5104 9.59 37.1704 9.38 38.0004 9.38C38.7904 9.38 39.4354 9.58 39.9354 9.98C40.4454 10.37 40.7404 10.93 40.8204 11.66H39.5754C39.5254 11.28 39.3604 10.985 39.0804 10.775C38.8104 10.555 38.4454 10.445 37.9854 10.445C37.5354 10.445 37.1854 10.54 36.9354 10.73C36.6954 10.92 36.5754 11.17 36.5754 11.48C36.5754 11.78 36.7304 12.015 37.0404 12.185C37.3604 12.355 37.7904 12.5 38.3304 12.62C38.7904 12.72 39.2254 12.845 39.6354 12.995C40.0554 13.135 40.3954 13.35 40.6554 13.64C40.9254 13.92 41.0604 14.33 41.0604 14.87C41.0704 15.54 40.8154 16.095 40.2954 16.535C39.7854 16.965 39.0904 17.18 38.2104 17.18ZM49.601 17.18C48.881 17.18 48.246 17.05 47.696 16.79C47.156 16.52 46.731 16.15 46.421 15.68C46.121 15.2 45.971 14.635 45.971 13.985C45.971 13.275 46.176 12.645 46.586 12.095C47.006 11.535 47.611 11.095 48.401 10.775C48.061 10.405 47.816 10.055 47.666 9.725C47.516 9.385 47.441 9.02 47.441 8.63C47.441 7.96 47.676 7.41 48.146 6.98C48.626 6.54 49.281 6.32 50.111 6.32C50.651 6.32 51.121 6.425 51.521 6.635C51.921 6.835 52.231 7.115 52.451 7.475C52.671 7.835 52.771 8.245 52.751 8.705H51.506C51.516 8.255 51.376 7.915 51.086 7.685C50.806 7.455 50.481 7.34 50.111 7.34C49.661 7.34 49.311 7.46 49.061 7.7C48.811 7.94 48.686 8.245 48.686 8.615C48.686 8.935 48.771 9.245 48.941 9.545C49.121 9.845 49.386 10.18 49.736 10.55L53.051 13.895C53.341 13.475 53.656 12.97 53.996 12.38L54.461 11.57H55.796L55.136 12.74C54.696 13.53 54.276 14.19 53.876 14.72L56.141 17H54.551L53.156 15.59C52.626 16.16 52.076 16.57 51.506 16.82C50.936 17.06 50.301 17.18 49.601 17.18ZM47.231 13.94C47.231 14.56 47.451 15.075 47.891 15.485C48.331 15.895 48.906 16.1 49.616 16.1C50.146 16.1 50.626 16 51.056 15.8C51.496 15.59 51.926 15.25 52.346 14.78L49.166 11.555C48.506 11.815 48.016 12.145 47.696 12.545C47.386 12.945 47.231 13.41 47.231 13.94ZM65.648 17.18C64.618 17.18 63.728 16.955 62.978 16.505C62.238 16.045 61.663 15.41 61.253 14.6C60.843 13.78 60.638 12.83 60.638 11.75C60.638 10.68 60.843 9.74 61.253 8.93C61.663 8.11 62.238 7.47 62.978 7.01C63.728 6.55 64.618 6.32 65.648 6.32C66.848 6.32 67.823 6.61 68.573 7.19C69.333 7.76 69.818 8.56 70.028 9.59H68.633C68.473 8.94 68.143 8.42 67.643 8.03C67.153 7.63 66.488 7.43 65.648 7.43C64.898 7.43 64.243 7.605 63.683 7.955C63.123 8.295 62.688 8.79 62.378 9.44C62.078 10.08 61.928 10.85 61.928 11.75C61.928 12.65 62.078 13.425 62.378 14.075C62.688 14.715 63.123 15.21 63.683 15.56C64.243 15.9 64.898 16.07 65.648 16.07C66.488 16.07 67.153 15.88 67.643 15.5C68.143 15.11 68.473 14.595 68.633 13.955H70.028C69.818 14.965 69.333 15.755 68.573 16.325C67.823 16.895 66.848 17.18 65.648 17.18ZM74.9493 17.18C74.2493 17.18 73.6193 17.02 73.0593 16.7C72.4993 16.38 72.0543 15.93 71.7243 15.35C71.4043 14.76 71.2443 14.07 71.2443 13.28C71.2443 12.49 71.4093 11.805 71.7393 11.225C72.0693 10.635 72.5143 10.18 73.0743 9.86C73.6443 9.54 74.2793 9.38 74.9793 9.38C75.6793 9.38 76.3093 9.54 76.8693 9.86C77.4293 10.18 77.8693 10.635 78.1893 11.225C78.5193 11.805 78.6843 12.49 78.6843 13.28C78.6843 14.07 78.5193 14.76 78.1893 15.35C77.8593 15.93 77.4093 16.38 76.8393 16.7C76.2793 17.02 75.6493 17.18 74.9493 17.18ZM74.9493 16.1C75.3793 16.1 75.7793 15.995 76.1493 15.785C76.5193 15.575 76.8193 15.26 77.0493 14.84C77.2793 14.42 77.3943 13.9 77.3943 13.28C77.3943 12.66 77.2793 12.14 77.0493 11.72C76.8293 11.3 76.5343 10.985 76.1643 10.775C75.7943 10.565 75.3993 10.46 74.9793 10.46C74.5493 10.46 74.1493 10.565 73.7793 10.775C73.4093 10.985 73.1093 11.3 72.8793 11.72C72.6493 12.14 72.5343 12.66 72.5343 13.28C72.5343 13.9 72.6493 14.42 72.8793 14.84C73.1093 15.26 73.4043 15.575 73.7643 15.785C74.1343 15.995 74.5293 16.1 74.9493 16.1ZM80.2317 17V9.56H81.3717L81.4467 10.895C81.6867 10.425 82.0317 10.055 82.4817 9.785C82.9317 9.515 83.4417 9.38 84.0117 9.38C84.8917 9.38 85.5917 9.65 86.1117 10.19C86.6417 10.72 86.9067 11.54 86.9067 12.65V17H85.6467V12.785C85.6467 11.235 85.0067 10.46 83.7267 10.46C83.0867 10.46 82.5517 10.695 82.1217 11.165C81.7017 11.625 81.4917 12.285 81.4917 13.145V17H80.2317ZM91.9862 17.18C91.2462 17.18 90.5962 17.01 90.0362 16.67C89.4862 16.33 89.0562 15.865 88.7462 15.275C88.4462 14.685 88.2962 14.015 88.2962 13.265C88.2962 12.515 88.4512 11.85 88.7612 11.27C89.0712 10.68 89.5012 10.22 90.0512 9.89C90.6012 9.55 91.2512 9.38 92.0012 9.38C92.6112 9.38 93.1512 9.505 93.6212 9.755C94.0912 10.005 94.4562 10.355 94.7162 10.805V6.2H95.9762V17H94.8362L94.7162 15.77C94.4762 16.13 94.1312 16.455 93.6812 16.745C93.2312 17.035 92.6662 17.18 91.9862 17.18ZM92.1212 16.085C92.6212 16.085 93.0612 15.97 93.4412 15.74C93.8312 15.5 94.1312 15.17 94.3412 14.75C94.5612 14.33 94.6712 13.84 94.6712 13.28C94.6712 12.72 94.5612 12.23 94.3412 11.81C94.1312 11.39 93.8312 11.065 93.4412 10.835C93.0612 10.595 92.6212 10.475 92.1212 10.475C91.6312 10.475 91.1912 10.595 90.8012 10.835C90.4212 11.065 90.1212 11.39 89.9012 11.81C89.6912 12.23 89.5862 12.72 89.5862 13.28C89.5862 13.84 89.6912 14.33 89.9012 14.75C90.1212 15.17 90.4212 15.5 90.8012 15.74C91.1912 15.97 91.6312 16.085 92.1212 16.085ZM98.5906 7.91C98.3406 7.91 98.1306 7.83 97.9606 7.67C97.8006 7.5 97.7206 7.29 97.7206 7.04C97.7206 6.8 97.8006 6.6 97.9606 6.44C98.1306 6.28 98.3406 6.2 98.5906 6.2C98.8306 6.2 99.0356 6.28 99.2056 6.44C99.3756 6.6 99.4606 6.8 99.4606 7.04C99.4606 7.29 99.3756 7.5 99.2056 7.67C99.0356 7.83 98.8306 7.91 98.5906 7.91ZM97.9606 17V9.56H99.2206V17H97.9606ZM104.15 17C103.47 17 102.935 16.835 102.545 16.505C102.155 16.175 101.96 15.58 101.96 14.72V10.625H100.67V9.56H101.96L102.125 7.775H103.22V9.56H105.41V10.625H103.22V14.72C103.22 15.19 103.315 15.51 103.505 15.68C103.695 15.84 104.03 15.92 104.51 15.92H105.29V17H104.15ZM107.571 7.91C107.321 7.91 107.111 7.83 106.941 7.67C106.781 7.5 106.701 7.29 106.701 7.04C106.701 6.8 106.781 6.6 106.941 6.44C107.111 6.28 107.321 6.2 107.571 6.2C107.811 6.2 108.016 6.28 108.186 6.44C108.356 6.6 108.441 6.8 108.441 7.04C108.441 7.29 108.356 7.5 108.186 7.67C108.016 7.83 107.811 7.91 107.571 7.91ZM106.941 17V9.56H108.201V17H106.941ZM113.58 17.18C112.88 17.18 112.25 17.02 111.69 16.7C111.13 16.38 110.685 15.93 110.355 15.35C110.035 14.76 109.875 14.07 109.875 13.28C109.875 12.49 110.04 11.805 110.37 11.225C110.7 10.635 111.145 10.18 111.705 9.86C112.275 9.54 112.91 9.38 113.61 9.38C114.31 9.38 114.94 9.54 115.5 9.86C116.06 10.18 116.5 10.635 116.82 11.225C117.15 11.805 117.315 12.49 117.315 13.28C117.315 14.07 117.15 14.76 116.82 15.35C116.49 15.93 116.04 16.38 115.47 16.7C114.91 17.02 114.28 17.18 113.58 17.18ZM113.58 16.1C114.01 16.1 114.41 15.995 114.78 15.785C115.15 15.575 115.45 15.26 115.68 14.84C115.91 14.42 116.025 13.9 116.025 13.28C116.025 12.66 115.91 12.14 115.68 11.72C115.46 11.3 115.165 10.985 114.795 10.775C114.425 10.565 114.03 10.46 113.61 10.46C113.18 10.46 112.78 10.565 112.41 10.775C112.04 10.985 111.74 11.3 111.51 11.72C111.28 12.14 111.165 12.66 111.165 13.28C111.165 13.9 111.28 14.42 111.51 14.84C111.74 15.26 112.035 15.575 112.395 15.785C112.765 15.995 113.16 16.1 113.58 16.1ZM118.863 17V9.56H120.003L120.078 10.895C120.318 10.425 120.663 10.055 121.113 9.785C121.563 9.515 122.073 9.38 122.643 9.38C123.523 9.38 124.223 9.65 124.743 10.19C125.273 10.72 125.538 11.54 125.538 12.65V17H124.278V12.785C124.278 11.235 123.638 10.46 122.358 10.46C121.718 10.46 121.183 10.695 120.753 11.165C120.333 11.625 120.123 12.285 120.123 13.145V17H118.863ZM130.092 17.18C129.202 17.18 128.462 16.955 127.872 16.505C127.282 16.055 126.937 15.445 126.837 14.675H128.127C128.207 15.065 128.412 15.405 128.742 15.695C129.082 15.975 129.537 16.115 130.107 16.115C130.637 16.115 131.027 16.005 131.277 15.785C131.527 15.555 131.652 15.285 131.652 14.975C131.652 14.525 131.487 14.225 131.157 14.075C130.837 13.925 130.382 13.79 129.792 13.67C129.392 13.59 128.992 13.475 128.592 13.325C128.192 13.175 127.857 12.965 127.587 12.695C127.317 12.415 127.182 12.05 127.182 11.6C127.182 10.95 127.422 10.42 127.902 10.01C128.392 9.59 129.052 9.38 129.882 9.38C130.672 9.38 131.317 9.58 131.817 9.98C132.327 10.37 132.622 10.93 132.702 11.66H131.457C131.407 11.28 131.242 10.985 130.962 10.775C130.692 10.555 130.327 10.445 129.867 10.445C129.417 10.445 129.067 10.54 128.817 10.73C128.577 10.92 128.457 11.17 128.457 11.48C128.457 11.78 128.612 12.015 128.922 12.185C129.242 12.355 129.672 12.5 130.212 12.62C130.672 12.72 131.107 12.845 131.517 12.995C131.937 13.135 132.277 13.35 132.537 13.64C132.807 13.92 132.942 14.33 132.942 14.87C132.952 15.54 132.697 16.095 132.177 16.535C131.667 16.965 130.972 17.18 130.092 17.18Z" fill="white"/>
<path d="M174.8 17V6.5H178.25C179.07 6.5 179.745 6.635 180.275 6.905C180.805 7.175 181.195 7.54 181.445 8C181.705 8.46 181.835 8.98 181.835 9.56C181.835 10.13 181.71 10.645 181.46 11.105C181.21 11.565 180.82 11.935 180.29 12.215C179.76 12.485 179.08 12.62 178.25 12.62H176.06V17H174.8ZM176.06 11.555H178.22C179.06 11.555 179.655 11.38 180.005 11.03C180.365 10.67 180.545 10.18 180.545 9.56C180.545 8.93 180.365 8.44 180.005 8.09C179.655 7.73 179.06 7.55 178.22 7.55H176.06V11.555ZM183.207 17V9.56H184.347L184.452 10.985C184.682 10.495 185.032 10.105 185.502 9.815C185.972 9.525 186.552 9.38 187.242 9.38V10.7H186.897C186.457 10.7 186.052 10.78 185.682 10.94C185.312 11.09 185.017 11.35 184.797 11.72C184.577 12.09 184.467 12.6 184.467 13.25V17H183.207ZM189.217 7.91C188.967 7.91 188.757 7.83 188.587 7.67C188.427 7.5 188.347 7.29 188.347 7.04C188.347 6.8 188.427 6.6 188.587 6.44C188.757 6.28 188.967 6.2 189.217 6.2C189.457 6.2 189.662 6.28 189.832 6.44C190.002 6.6 190.087 6.8 190.087 7.04C190.087 7.29 190.002 7.5 189.832 7.67C189.662 7.83 189.457 7.91 189.217 7.91ZM188.587 17V9.56H189.847V17H188.587ZM193.981 17L191.161 9.56H192.481L194.716 15.785L196.966 9.56H198.256L195.436 17H193.981ZM201.548 17.18C200.928 17.18 200.413 17.075 200.003 16.865C199.593 16.655 199.288 16.375 199.088 16.025C198.888 15.675 198.788 15.295 198.788 14.885C198.788 14.125 199.078 13.54 199.658 13.13C200.238 12.72 201.028 12.515 202.028 12.515H204.038V12.425C204.038 11.775 203.868 11.285 203.528 10.955C203.188 10.615 202.733 10.445 202.163 10.445C201.673 10.445 201.248 10.57 200.888 10.82C200.538 11.06 200.318 11.415 200.228 11.885H198.938C198.988 11.345 199.168 10.89 199.478 10.52C199.798 10.15 200.193 9.87 200.663 9.68C201.133 9.48 201.633 9.38 202.163 9.38C203.203 9.38 203.983 9.66 204.503 10.22C205.033 10.77 205.298 11.505 205.298 12.425V17H204.173L204.098 15.665C203.888 16.085 203.578 16.445 203.168 16.745C202.768 17.035 202.228 17.18 201.548 17.18ZM201.743 16.115C202.223 16.115 202.633 15.99 202.973 15.74C203.323 15.49 203.588 15.165 203.768 14.765C203.948 14.365 204.038 13.945 204.038 13.505V13.49H202.133C201.393 13.49 200.868 13.62 200.558 13.88C200.258 14.13 200.108 14.445 200.108 14.825C200.108 15.215 200.248 15.53 200.528 15.77C200.818 16 201.223 16.115 201.743 16.115ZM210.404 17.18C209.694 17.18 209.054 17.02 208.484 16.7C207.924 16.37 207.479 15.915 207.149 15.335C206.829 14.745 206.669 14.06 206.669 13.28C206.669 12.5 206.829 11.82 207.149 11.24C207.479 10.65 207.924 10.195 208.484 9.875C209.054 9.545 209.694 9.38 210.404 9.38C211.284 9.38 212.024 9.61 212.624 10.07C213.234 10.53 213.619 11.145 213.779 11.915H212.489C212.389 11.455 212.144 11.1 211.754 10.85C211.364 10.59 210.909 10.46 210.389 10.46C209.969 10.46 209.574 10.565 209.204 10.775C208.834 10.985 208.534 11.3 208.304 11.72C208.074 12.14 207.959 12.66 207.959 13.28C207.959 13.9 208.074 14.42 208.304 14.84C208.534 15.26 208.834 15.58 209.204 15.8C209.574 16.01 209.969 16.115 210.389 16.115C210.909 16.115 211.364 15.99 211.754 15.74C212.144 15.48 212.389 15.115 212.489 14.645H213.779C213.629 15.395 213.249 16.005 212.639 16.475C212.029 16.945 211.284 17.18 210.404 17.18ZM216.144 20.3L217.989 16.28H217.554L214.599 9.56H215.964L218.424 15.35L221.034 9.56H222.339L217.464 20.3H216.144ZM227.305 17V6.5H230.755C231.575 6.5 232.25 6.635 232.78 6.905C233.31 7.175 233.7 7.54 233.95 8C234.21 8.46 234.34 8.98 234.34 9.56C234.34 10.13 234.215 10.645 233.965 11.105C233.715 11.565 233.325 11.935 232.795 12.215C232.265 12.485 231.585 12.62 230.755 12.62H228.565V17H227.305ZM228.565 11.555H230.725C231.565 11.555 232.16 11.38 232.51 11.03C232.87 10.67 233.05 10.18 233.05 9.56C233.05 8.93 232.87 8.44 232.51 8.09C232.16 7.73 231.565 7.55 230.725 7.55H228.565V11.555ZM238.662 17.18C237.962 17.18 237.332 17.02 236.772 16.7C236.212 16.38 235.767 15.93 235.437 15.35C235.117 14.76 234.957 14.07 234.957 13.28C234.957 12.49 235.122 11.805 235.452 11.225C235.782 10.635 236.227 10.18 236.787 9.86C237.357 9.54 237.992 9.38 238.692 9.38C239.392 9.38 240.022 9.54 240.582 9.86C241.142 10.18 241.582 10.635 241.902 11.225C242.232 11.805 242.397 12.49 242.397 13.28C242.397 14.07 242.232 14.76 241.902 15.35C241.572 15.93 241.122 16.38 240.552 16.7C239.992 17.02 239.362 17.18 238.662 17.18ZM238.662 16.1C239.092 16.1 239.492 15.995 239.862 15.785C240.232 15.575 240.532 15.26 240.762 14.84C240.992 14.42 241.107 13.9 241.107 13.28C241.107 12.66 240.992 12.14 240.762 11.72C240.542 11.3 240.247 10.985 239.877 10.775C239.507 10.565 239.112 10.46 238.692 10.46C238.262 10.46 237.862 10.565 237.492 10.775C237.122 10.985 236.822 11.3 236.592 11.72C236.362 12.14 236.247 12.66 236.247 13.28C236.247 13.9 236.362 14.42 236.592 14.84C236.822 15.26 237.117 15.575 237.477 15.785C237.847 15.995 238.242 16.1 238.662 16.1ZM243.945 17V6.2H245.205V17H243.945ZM247.83 7.91C247.58 7.91 247.37 7.83 247.2 7.67C247.04 7.5 246.96 7.29 246.96 7.04C246.96 6.8 247.04 6.6 247.2 6.44C247.37 6.28 247.58 6.2 247.83 6.2C248.07 6.2 248.275 6.28 248.445 6.44C248.615 6.6 248.7 6.8 248.7 7.04C248.7 7.29 248.615 7.5 248.445 7.67C248.275 7.83 248.07 7.91 247.83 7.91ZM247.2 17V9.56H248.46V17H247.2ZM253.87 17.18C253.16 17.18 252.52 17.02 251.95 16.7C251.39 16.37 250.945 15.915 250.615 15.335C250.295 14.745 250.135 14.06 250.135 13.28C250.135 12.5 250.295 11.82 250.615 11.24C250.945 10.65 251.39 10.195 251.95 9.875C252.52 9.545 253.16 9.38 253.87 9.38C254.75 9.38 255.49 9.61 256.09 10.07C256.7 10.53 257.085 11.145 257.245 11.915H255.955C255.855 11.455 255.61 11.1 255.22 10.85C254.83 10.59 254.375 10.46 253.855 10.46C253.435 10.46 253.04 10.565 252.67 10.775C252.3 10.985 252 11.3 251.77 11.72C251.54 12.14 251.425 12.66 251.425 13.28C251.425 13.9 251.54 14.42 251.77 14.84C252 15.26 252.3 15.58 252.67 15.8C253.04 16.01 253.435 16.115 253.855 16.115C254.375 16.115 254.83 15.99 255.22 15.74C255.61 15.48 255.855 15.115 255.955 14.645H257.245C257.095 15.395 256.715 16.005 256.105 16.475C255.495 16.945 254.75 17.18 253.87 17.18ZM259.61 20.3L261.455 16.28H261.02L258.065 9.56H259.43L261.89 15.35L264.5 9.56H265.805L260.93 20.3H259.61Z" fill="white"/>
<path d="M942.84 4.29509H944.652V1.13974C944.34 1.09674 943.265 1 942.013 1C939.401 1 937.611 2.643 937.611 5.66274V8.44186H934.729V11.9693H937.611V20.845H941.145V11.9701H943.911L944.35 8.44269H941.145V6.01251C941.145 4.99297 941.42 4.29509 942.84 4.29509Z" fill="white"/>
<path d="M1006.69 4.11613C1005.87 4.475 1005 4.71288 1004.09 4.82838C1005.03 4.27013 1005.74 3.39287 1006.08 2.3355C1005.2 2.85525 1004.24 3.22238 1003.22 3.42725C1002.39 2.54588 1001.21 2 999.921 2C997.424 2 995.414 4.02675 995.414 6.51137C995.414 6.86888 995.444 7.21263 995.519 7.53988C991.769 7.357 988.451 5.55988 986.222 2.82225C985.833 3.49738 985.605 4.27012 985.605 5.102C985.605 6.664 986.409 8.04862 987.608 8.85025C986.884 8.8365 986.173 8.62613 985.57 8.29475C985.57 8.3085 985.57 8.32638 985.57 8.34425C985.57 10.536 987.134 12.3565 989.184 12.7759C988.817 12.8763 988.417 12.9244 988.001 12.9244C987.713 12.9244 987.421 12.9079 987.148 12.8474C987.732 14.6335 989.39 15.9466 991.362 15.9893C989.827 17.1896 987.879 17.9129 985.77 17.9129C985.4 17.9129 985.045 17.8964 984.69 17.851C986.688 19.1394 989.056 19.875 991.609 19.875C999.909 19.875 1004.45 13 1004.45 7.04075C1004.45 6.84137 1004.44 6.64887 1004.43 6.45775C1005.33 5.8225 1006.08 5.02913 1006.69 4.11613Z" fill="white"/>
<path fill-rule="evenodd" clip-rule="evenodd" d="M1053.57 0H1061.82C1065.61 0 1068.69 3.07862 1068.69 6.875V15.125C1068.69 18.9214 1065.61 22 1061.82 22H1053.57C1049.77 22 1046.69 18.9214 1046.69 15.125V6.875C1046.69 3.07862 1049.77 0 1053.57 0ZM1061.82 19.9375C1064.47 19.9375 1066.63 17.7787 1066.63 15.125V6.875C1066.63 4.22125 1064.47 2.0625 1061.82 2.0625H1053.57C1050.91 2.0625 1048.75 4.22125 1048.75 6.875V15.125C1048.75 17.7787 1050.91 19.9375 1053.57 19.9375H1061.82Z" fill="white"/>
<path fill-rule="evenodd" clip-rule="evenodd" d="M1052.19 11C1052.19 7.96263 1054.65 5.5 1057.69 5.5C1060.73 5.5 1063.19 7.96263 1063.19 11C1063.19 14.0374 1060.73 16.5 1057.69 16.5C1054.65 16.5 1052.19 14.0374 1052.19 11ZM1054.25 11C1054.25 12.8948 1055.8 14.4375 1057.69 14.4375C1059.59 14.4375 1061.13 12.8948 1061.13 11C1061.13 9.10388 1059.59 7.5625 1057.69 7.5625C1055.8 7.5625 1054.25 9.10388 1054.25 11Z" fill="white"/>
<circle cx="1063.6" cy="5.08749" r="0.732875" fill="white"/>
</g>
<defs>
<clipPath id="clip0_0_60">
<rect width="1068" height="22" fill="white" transform="translate(0.69043)"/>
</clipPath>
</defs>
</svg>
